<svg width="276" height="336" viewBox="0 0 276 336" fill="none" xmlns="http://www.w3.org/2000/svg">
<g filter="url(#filter0_d)">
<mask id="mask0" mask-type="alpha" maskUnits="userSpaceOnUse" x="10" y="6" width="256" height="270">
<path d="M143.893 12.3104L13.8252 175.277C8.39891 182.076 9.53329 192.01 16.3589 197.464L109.345 271.774C116.171 277.229 126.103 276.139 131.53 269.34L261.597 106.374C267.023 99.5746 265.889 89.6411 259.063 84.1864L166.077 9.87658C159.251 4.42187 149.319 5.51153 143.893 12.3104Z" fill="white"/>
</mask>
<g mask="url(#mask0)">
<path d="M143.893 12.3104L13.8252 175.277C8.39891 182.076 9.53329 192.01 16.359 197.464L109.345 271.774C116.171 277.229 126.103 276.139 131.53 269.34L261.597 106.374C267.023 99.5746 265.889 89.6412 259.063 84.1864L166.077 9.87659C159.251 4.42188 149.319 5.51153 143.893 12.3104Z" fill="#3BD3D3"/>
<path d="M32.7188 187.788L29.1003 184.896L29.7277 184.11L32.9434 184.791L31.5563 181.819L32.1838 181.033L35.8024 183.924L35.274 184.587L32.7772 182.591L33.9521 185.182L33.5352 185.704L30.7504 185.131L33.2472 187.126L32.7188 187.788ZM37.3951 182.056C37.1969 182.304 36.9612 182.483 36.6878 182.592C36.4173 182.698 36.1352 182.729 35.8418 182.687C35.5476 182.638 35.2679 182.508 35.0025 182.296C34.7372 182.084 34.5513 181.839 34.445 181.562C34.3352 181.283 34.3019 180.999 34.3451 180.712C34.3909 180.421 34.513 180.151 34.7111 179.903C34.9065 179.658 35.1395 179.483 35.4101 179.377C35.6834 179.268 35.9671 179.238 36.2613 179.287C36.5547 179.329 36.8341 179.456 37.0995 179.668C37.3649 179.881 37.5524 180.126 37.6622 180.406C37.7713 180.68 37.8028 180.962 37.757 181.253C37.7111 181.544 37.5904 181.811 37.3951 182.056ZM36.8213 181.598C36.9588 181.425 37.0148 181.224 36.9891 180.995C36.96 180.763 36.8179 180.545 36.5629 180.341C36.3078 180.137 36.0657 180.048 35.8363 180.074C35.6036 180.097 35.4197 180.192 35.2849 180.361C35.1446 180.537 35.0889 180.741 35.1181 180.974C35.1465 181.2 35.2883 181.414 35.5433 181.618C35.7983 181.822 36.0408 181.914 36.2709 181.895C36.5002 181.869 36.6837 181.77 36.8213 181.598ZM38.8539 180.101L36.2899 178.052L36.7563 177.468L37.2319 177.763C37.1435 177.562 37.1137 177.352 37.1424 177.132C37.1739 176.909 37.2708 176.696 37.4332 176.492C37.6864 176.175 37.9831 176.008 38.3233 175.992C38.6635 175.976 39.0267 176.122 39.4126 176.431L40.8601 177.587L40.3317 178.249L38.9463 177.142C38.7257 176.966 38.5211 176.876 38.3324 176.872C38.1437 176.868 37.9736 176.961 37.8223 177.15C37.6737 177.337 37.6167 177.542 37.6513 177.768C37.6887 177.99 37.8246 178.194 38.0589 178.381L39.3823 179.439L38.8539 180.101ZM42.4222 175.758C42.2158 176.016 41.9776 176.201 41.7077 176.313C41.4378 176.425 41.1575 176.458 40.8669 176.412C40.5762 176.366 40.2998 176.239 40.0379 176.029C39.7726 175.817 39.5805 175.573 39.4618 175.298C39.3459 175.019 39.3094 174.735 39.3526 174.448C39.395 174.154 39.5236 173.873 39.7382 173.604C39.9391 173.353 40.1717 173.174 40.4361 173.069C40.7005 172.964 40.9719 172.935 41.2502 172.983C41.5278 173.024 41.7837 173.138 42.0181 173.325C42.056 173.356 42.0942 173.389 42.1328 173.426C42.1742 173.459 42.2159 173.495 42.258 173.534L40.7017 175.484C40.9126 175.63 41.1245 175.686 41.3373 175.653C41.5528 175.616 41.7321 175.508 41.8752 175.329C41.9826 175.194 42.0427 175.059 42.0557 174.923C42.0679 174.78 42.0437 174.648 41.983 174.526L42.5196 173.853C42.6431 174.031 42.7266 174.23 42.7702 174.452C42.8131 174.667 42.8064 174.887 42.7501 175.113C42.6966 175.336 42.5873 175.551 42.4222 175.758ZM40.2758 174.034C40.1465 174.196 40.0788 174.376 40.0728 174.575C40.0633 174.77 40.1379 174.96 40.2964 175.143L41.316 173.866C41.1389 173.741 40.955 173.696 40.7642 173.73C40.5735 173.763 40.4107 173.865 40.2758 174.034ZM45.1248 174.578L44.2916 172.938L44.1678 173.093L40.9777 172.179L41.5515 171.46L43.9293 172.182L42.7238 169.991L43.2852 169.287L45.6862 173.874L45.1248 174.578ZM46.8798 170.045L43.7937 167.579L42.9516 168.634L42.4192 168.208L44.6358 165.431L45.1683 165.857L44.3221 166.917L47.4082 169.383L46.8798 170.045ZM49.307 167.131C49.1089 167.379 48.8732 167.558 48.5998 167.667C48.3292 167.773 48.0472 167.804 47.7538 167.762C47.4596 167.713 47.1799 167.583 46.9145 167.371C46.6492 167.159 46.4633 166.914 46.357 166.637C46.2472 166.358 46.2139 166.074 46.257 165.787C46.3029 165.496 46.4249 165.226 46.6231 164.978C46.8185 164.733 47.0514 164.558 47.322 164.452C47.5954 164.343 47.8791 164.313 48.1733 164.362C48.4667 164.404 48.7461 164.531 49.0115 164.743C49.2768 164.956 49.4644 165.201 49.5742 165.481C49.6832 165.755 49.7148 166.037 49.6689 166.328C49.6231 166.619 49.5024 166.886 49.307 167.131ZM48.7332 166.673C48.8708 166.5 48.9268 166.299 48.9011 166.07C48.872 165.838 48.7299 165.62 48.4748 165.416C48.2198 165.212 47.9776 165.123 47.7483 165.149C47.5155 165.172 47.3317 165.267 47.1969 165.436C47.0565 165.612 47.0009 165.816 47.0301 166.049C47.0585 166.275 47.2002 166.489 47.4553 166.693C47.7103 166.897 47.9528 166.989 48.1828 166.97C48.4122 166.944 48.5956 166.845 48.7332 166.673ZM50.7783 165.161L47.1597 162.269L48.2288 160.929C48.46 160.64 48.6995 160.439 48.9473 160.326C49.1952 160.213 49.4407 160.178 49.6839 160.22C49.927 160.262 50.1537 160.367 50.364 160.535C50.5638 160.694 50.7124 160.887 50.8098 161.111C50.9036 161.333 50.9266 161.58 50.8786 161.852C50.8272 162.122 50.6832 162.405 50.4465 162.701L49.9057 163.379L51.3066 164.499L50.7783 165.161ZM49.3681 162.949L49.8759 162.313C50.0602 162.082 50.1424 161.877 50.1222 161.697C50.1014 161.511 50.0031 161.348 49.8273 161.207C49.6481 161.064 49.4673 161.004 49.2848 161.028C49.1016 161.045 48.9178 161.169 48.7334 161.4L48.2257 162.036L49.3681 162.949ZM53.9122 161.361C53.736 161.582 53.5571 161.735 53.3753 161.822C53.1901 161.905 53.0114 161.935 52.8392 161.91C52.667 161.885 52.5103 161.817 52.369 161.704C52.1312 161.514 52.0125 161.266 52.0129 160.962C52.0133 160.657 52.1621 160.319 52.4593 159.946L52.9794 159.294L52.9174 159.245C52.7417 159.104 52.5725 159.051 52.41 159.085C52.2475 159.119 52.1071 159.21 51.9887 159.358C51.8814 159.493 51.8206 159.636 51.8063 159.788C51.7885 159.938 51.832 160.074 51.9368 160.198L51.4208 160.844C51.2485 160.678 51.136 160.487 51.0835 160.27C51.0337 160.049 51.0414 159.824 51.1066 159.594C51.1684 159.361 51.2846 159.137 51.4552 158.923C51.7469 158.558 52.0681 158.343 52.4186 158.279C52.7691 158.214 53.1115 158.316 53.4458 158.583L55.0224 159.843L54.5725 160.407L54.1094 160.138C54.1867 160.324 54.2151 160.522 54.1947 160.731C54.177 160.938 54.0828 161.147 53.9122 161.361ZM53.5149 160.798C53.6663 160.609 53.7212 160.412 53.6797 160.21C53.6409 160.004 53.5413 159.814 53.3806 159.64L52.9307 160.204C52.7903 160.38 52.7226 160.532 52.7276 160.66C52.729 160.786 52.7763 160.886 52.8694 160.96C52.9693 161.04 53.0771 161.064 53.1928 161.032C53.3085 161 53.4159 160.922 53.5149 160.798ZM56.8513 159.885L56.0182 158.245L55.8943 158.4L52.7042 157.486L53.278 156.767L55.6559 157.49L54.4503 155.298L55.0117 154.595L57.4127 159.182L56.8513 159.885Z" fill="white"/>
</g>
<path d="M112.315 249.477C112.198 249.623 112.056 249.731 111.89 249.8C111.72 249.866 111.545 249.885 111.365 249.858C111.187 249.828 111.022 249.752 110.87 249.63C110.717 249.508 110.608 249.365 110.543 249.201C110.476 249.031 110.457 248.859 110.485 248.685C110.515 248.507 110.59 248.343 110.709 248.194C110.828 248.045 110.971 247.936 111.137 247.867C111.304 247.798 111.477 247.777 111.658 247.804C111.835 247.829 111.999 247.902 112.152 248.024C112.304 248.146 112.414 248.291 112.48 248.461C112.546 248.631 112.566 248.806 112.539 248.987C112.508 249.164 112.434 249.328 112.315 249.477ZM115.22 245.836C115.104 245.982 114.962 246.09 114.796 246.159C114.626 246.225 114.451 246.245 114.271 246.217C114.093 246.187 113.928 246.111 113.776 245.989C113.623 245.867 113.514 245.724 113.449 245.56C113.382 245.39 113.363 245.218 113.391 245.044C113.421 244.866 113.496 244.702 113.615 244.553C113.734 244.404 113.877 244.295 114.043 244.226C114.21 244.157 114.383 244.136 114.564 244.163C114.741 244.188 114.905 244.261 115.058 244.383C115.21 244.505 115.319 244.65 115.386 244.82C115.452 244.99 115.472 245.165 115.445 245.346C115.414 245.523 115.34 245.687 115.22 245.836ZM118.126 242.195C118.01 242.341 117.868 242.449 117.702 242.518C117.532 242.584 117.357 242.604 117.177 242.577C116.999 242.546 116.834 242.47 116.681 242.348C116.529 242.226 116.42 242.083 116.354 241.919C116.288 241.75 116.269 241.577 116.297 241.403C116.327 241.225 116.402 241.062 116.521 240.912C116.64 240.763 116.783 240.654 116.949 240.585C117.116 240.516 117.289 240.495 117.469 240.522C117.646 240.547 117.811 240.62 117.964 240.742C118.116 240.864 118.225 241.01 118.292 241.179C118.358 241.349 118.378 241.524 118.35 241.705C118.32 241.883 118.245 242.046 118.126 242.195ZM121.032 238.554C120.916 238.701 120.774 238.808 120.608 238.877C120.438 238.943 120.263 238.963 120.082 238.936C119.905 238.905 119.74 238.829 119.587 238.707C119.435 238.586 119.326 238.443 119.26 238.279C119.194 238.109 119.175 237.936 119.202 237.762C119.233 237.584 119.307 237.421 119.427 237.271C119.546 237.122 119.689 237.013 119.855 236.944C120.022 236.875 120.195 236.854 120.375 236.882C120.552 236.906 120.717 236.979 120.869 237.101C121.022 237.223 121.131 237.369 121.197 237.539C121.264 237.708 121.283 237.884 121.256 238.064C121.226 238.242 121.151 238.405 121.032 238.554Z" fill="white"/>
<path d="M130.03 229.261C129.711 229.66 129.319 229.846 128.852 229.818C128.388 229.787 127.87 229.544 127.299 229.088C126.729 228.631 126.377 228.18 126.244 227.734C126.111 227.282 126.204 226.857 126.522 226.457C126.841 226.058 127.232 225.874 127.696 225.905C128.163 225.932 128.682 226.174 129.253 226.63C129.827 227.089 130.179 227.543 130.309 227.993C130.442 228.439 130.349 228.862 130.03 229.261ZM129.626 228.938C129.826 228.688 129.863 228.418 129.739 228.127C129.615 227.837 129.32 227.505 128.852 227.132C128.389 226.761 128.003 226.549 127.696 226.494C127.385 226.438 127.13 226.534 126.931 226.784C126.731 227.034 126.694 227.304 126.818 227.595C126.939 227.882 127.231 228.212 127.695 228.582C128.159 228.953 128.547 229.168 128.861 229.228C129.172 229.284 129.427 229.188 129.626 228.938ZM133.236 224.316L133.649 224.646L131.854 226.895L131.48 226.596L131.13 224.379C131.086 224.094 131.023 223.863 130.941 223.686C130.86 223.509 130.752 223.367 130.619 223.261C130.444 223.121 130.271 223.065 130.1 223.093C129.929 223.121 129.768 223.229 129.618 223.417C129.361 223.739 129.232 224.157 129.231 224.671L128.721 224.551C128.704 224.313 128.74 224.061 128.831 223.794C128.923 223.526 129.052 223.287 129.221 223.076C129.482 222.748 129.772 222.555 130.09 222.496C130.405 222.434 130.702 222.514 130.981 222.737C131.179 222.895 131.332 223.09 131.441 223.32C131.552 223.547 131.637 223.849 131.697 224.226L131.946 225.932L133.236 224.316ZM135.927 220.944L136.34 221.275L134.739 223.28L134.326 222.95L134.924 222.2L132.506 220.268L132.393 221.158L131.848 221.073L132.02 219.648L132.308 219.288L135.324 221.699L135.927 220.944ZM138.672 217.505L139.085 217.835L137.29 220.084L136.916 219.785L136.566 217.567C136.522 217.283 136.459 217.052 136.377 216.875C136.296 216.698 136.188 216.556 136.055 216.45C135.88 216.31 135.707 216.254 135.536 216.282C135.365 216.31 135.204 216.418 135.054 216.606C134.797 216.928 134.668 217.345 134.667 217.86L134.157 217.74C134.14 217.502 134.176 217.25 134.267 216.983C134.359 216.715 134.488 216.476 134.657 216.265C134.918 215.937 135.208 215.744 135.526 215.685C135.841 215.623 136.138 215.703 136.417 215.926C136.615 216.084 136.768 216.278 136.877 216.509C136.988 216.736 137.073 217.038 137.133 217.415L137.382 219.121L138.672 217.505Z" fill="white"/>
<path fill-rule="evenodd" clip-rule="evenodd" d="M223.683 96.9631L225.738 99.2577C224.107 99.9091 221.779 102.497 223.028 103.495C223.525 103.892 224.356 103.55 225.359 103.138C226.88 102.514 228.793 101.728 230.525 103.111C233.291 105.322 232.016 109.006 230.497 110.909C228.978 112.812 227.36 113.559 227.36 113.559L225.21 111.161C227.067 110.775 230.097 107.53 228.598 106.332C227.968 105.828 227.053 106.212 225.992 106.658C224.527 107.272 222.785 108.004 221.129 106.681C218.095 104.256 220.094 100.471 221.199 99.0866C222.221 97.8062 223.683 96.9631 223.683 96.9631ZM239.833 98.8211L241.877 96.2601L229.044 89.6617L227.254 91.9041C226.428 92.9394 227.05 93.8497 227.05 93.8497L233.958 106.182L236.278 103.275L235.101 101.382L237.93 97.8363L239.833 98.8211ZM233.474 98.7663L230.509 93.9961L235.302 96.4764L233.474 98.7663ZM216.751 120.661L211.273 111.928L213.668 108.927L221.178 122.195L218.858 125.101L207.324 119.852C205.094 120.646 203.732 121.76 203.732 121.76L203.586 121.559L207.094 117.163C208.06 115.954 209.146 116.635 209.146 116.635L214.864 119.668L214.863 119.668L216.751 120.661ZM224.196 118.414L226.422 115.625L216.763 105.05L214.536 107.84L224.196 118.414Z" fill="white"/>
</g>
<defs>
<filter id="filter0_d" x="0" y="0" width="275.422" height="335.651" filterUnits="userSpaceOnUse" color-interpolation-filters="sRGB">
<feFlood flood-opacity="0" result="BackgroundImageFix"/>
<feColorMatrix in="SourceAlpha" type="matrix" values="0 0 0 0 0 0 0 0 0 0 0 0 0 0 0 0 0 0 127 0"/>
<feOffset dy="50"/>
<feGaussianBlur stdDeviation="2"/>
<feColorMatrix type="matrix" values="0 0 0 0 0 0 0 0 0 0 0 0 0 0 0 0 0 0 0.08 0"/>
<feBlend mode="normal" in2="BackgroundImageFix" result="effect1_dropShadow"/>
<feBlend mode="normal" in="SourceGraphic" in2="effect1_dropShadow" result="shape"/>
</filter>
</defs>
</svg>
